# xmcd
#
# Track frame offsets: 
#        150
#        17442
#        38698
#        61072
#        82620
#        98115
#        118292
#        142242
#        161025
#        183420
#        199724
#
# Disc length: 3024 seconds
#
# Revision: 0
# Processed by: cddbd v1.5.2PL0 Copyright (c) Steve Scherf et al.
# Submitted via: ExactAudioCopy v1.0b4
#
DISCID=890bce0b
DTITLE=Thirsty Perch Blues Band - Live For Today
DYEAR=2015
DGENRE=Blues-Rock
TTITLE0=Blues Walk
TTITLE1=Bad Man
TTITLE2=Roll With me Baby
TTITLE3=Say Goodbye
TTITLE4=Conversation
TTITLE5=Live For Today
TTITLE6=Can't Have You
TTITLE7=39 Days
TTITLE8=The Queen
TTITLE9=Shake Those Blues
TTITLE10=One More Day
EXTD=
EXTT0=
EXTT1=
EXTT2=
EXTT3=
EXTT4=
EXTT5=
EXTT6=
EXTT7=
EXTT8=
EXTT9=
EXTT10=
PLAYORDER=
